FFmpeg version SVN-r25716, Copyright (c) 2000-2010 the FFmpeg developers  built on Nov 10 2010 12:23:18 with gcc 4.1.2 20080704 (Red Hat 4.1.2-48)  configuration: --enable-libmp3lame --enable-shared --disable-mmx --arch=x86_64  libavutil     50.33. 0 / 50.33. 0  libavcore      0.12. 1 /  0.12. 1  libavcodec    52.94. 4 / 52.94. 4  libavformat   52.84. 0 / 52.84. 0  libavdevice   52. 2. 2 / 52. 2. 2  libavfilter    1.59. 0 /  1.59. 0  libswscale     0.12. 0 /  0.12. 0Input #0, avi, from '/RAID10/data/converted_video_files/47674.avi':  Duration: 00:00:06.25, start: 0.000000, bitrate: 188577 kb/s    Stream #0.0: Video: msvideo1, rgb555le, 1024x1024, 20 tbr, 20 tbn, 20 tbc[buffer @ 0x1c859510] w:1024 h:1024 pixfmt:rgb555le[ffsink @ 0x1c858710] auto-inserting filter 'auto-inserted scaler 0' between the filter 'src' and the filter 'out'[scale @ 0x1c857650] w:1024 h:1024 fmt:rgb555le -> w:1024 h:1024 fmt:yuv420p flags:0x4Output #0, flv, to '/RAID10/data/converted_video_files/47674.flv':  Metadata:    encoder         : Lavf52.84.0    Stream #0.0: Video: flv, yuv420p, 1024x1024, q=2-31, 600 kb/s, 1k tbn, 24 tbcStream mapping:  Stream #0.0 -> #0.0Press [q] to stop encodingframe=    7 fps=  0 q=9.6 size=     950kB time=0.33 bitrate=23288.7kbits/s    frame=   16 fps= 14 q=31.0 size=     989kB time=0.79 bitrate=10229.8kbits/s    frame=   26 fps= 16 q=31.0 size=    1021kB time=1.29 bitrate=6477.9kbits/s    frame=   33 fps= 15 q=31.0 size=    1025kB time=1.62 bitrate=5165.5kbits/s    frame=   42 fps= 16 q=31.0 size=    1056kB time=2.08 bitrate=4150.8kbits/s    frame=   49 fps= 15 q=24.8 size=    1086kB time=2.46 bitrate=3618.3kbits/s    frame=   58 fps= 15 q=31.0 size=    1092kB time=2.88 bitrate=3110.6kbits/s    frame=   65 fps= 15 q=31.0 size=    1122kB time=3.25 bitrate=2828.7kbits/s    frame=   75 fps= 16 q=31.0 size=    1154kB time=3.75 bitrate=2521.0kbits/s    frame=   85 fps= 16 q=24.8 size=    1186kB time=4.25 bitrate=2286.1kbits/s    frame=   95 fps= 16 q=31.0 size=    1191kB time=4.75 bitrate=2055.0kbits/s    frame=  106 fps= 17 q=31.0 size=    1224kB time=5.29 bitrate=1894.0kbits/s    frame=  114 fps= 17 q=31.0 size=    1260kB time=5.71 bitrate=1808.1kbits/s    frame=  124 fps= 17 q=31.0 size=    1294kB time=6.21 bitrate=1706.7kbits/s    frame=  125 fps= 17 q=31.0 Lsize=    1294kB time=6.25 bitrate=1696.5kbits/s    video:1292kB audio:0kB global headers:0kB muxing overhead 0.167049%